<mxfile host="app.diagrams.net" modified="2021-10-31T16:43:54.943Z" agent="5.0 (Windows NT 10.0; Win64; x64) AppleWebKit/537.36 (KHTML, like Gecko) Chrome/95.0.4638.54 Safari/537.36" etag="BNoiJG2bVpiblTenBSTZ" version="15.6.3" type="github">
  <diagram name="Page-1" id="c4acf3e9-155e-7222-9cf6-157b1a14988f">
    <mxGraphModel dx="868" dy="482" grid="1" gridSize="10" guides="1" tooltips="1" connect="1" arrows="1" fold="1" page="1" pageScale="1" pageWidth="850" pageHeight="1100" background="none" math="0" shadow="0">
      <root>
        <mxCell id="0" />
        <mxCell id="1" parent="0" />
        <mxCell id="7-YqurPYllUJ31w4D0Pa-1" value="compte" style="swimlane;fontStyle=0;childLayout=stackLayout;horizontal=1;startSize=26;fillColor=#42F9FF;horizontalStack=0;resizeParent=1;resizeParentMax=0;resizeLast=0;collapsible=1;marginBottom=0;fontColor=#333333;strokeColor=#666666;rounded=0;strokeWidth=1;" vertex="1" parent="1">
          <mxGeometry x="550" y="40" width="170" height="182" as="geometry" />
        </mxCell>
        <mxCell id="7-YqurPYllUJ31w4D0Pa-2" value="compteId: string" style="text;strokeColor=#36393d;fillColor=#fff;align=left;verticalAlign=top;spacingLeft=4;spacingRight=4;overflow=hidden;rotatable=0;points=[[0,0.5],[1,0.5]];portConstraint=eastwest;" vertex="1" parent="7-YqurPYllUJ31w4D0Pa-1">
          <mxGeometry y="26" width="170" height="26" as="geometry" />
        </mxCell>
        <mxCell id="7-YqurPYllUJ31w4D0Pa-3" value="numeroTelephone : string" style="text;strokeColor=#36393d;fillColor=#FFFFFF;align=left;verticalAlign=top;spacingLeft=4;spacingRight=4;overflow=hidden;rotatable=0;points=[[0,0.5],[1,0.5]];portConstraint=eastwest;" vertex="1" parent="7-YqurPYllUJ31w4D0Pa-1">
          <mxGeometry y="52" width="170" height="26" as="geometry" />
        </mxCell>
        <mxCell id="7-YqurPYllUJ31w4D0Pa-4" value="etat : boolean" style="text;strokeColor=#36393d;fillColor=#fff;align=left;verticalAlign=top;spacingLeft=4;spacingRight=4;overflow=hidden;rotatable=0;points=[[0,0.5],[1,0.5]];portConstraint=eastwest;" vertex="1" parent="7-YqurPYllUJ31w4D0Pa-1">
          <mxGeometry y="78" width="170" height="26" as="geometry" />
        </mxCell>
        <mxCell id="7-YqurPYllUJ31w4D0Pa-5" value="nomUtilisateur: string" style="text;strokeColor=#36393d;fillColor=#fff;align=left;verticalAlign=top;spacingLeft=4;spacingRight=4;overflow=hidden;rotatable=0;points=[[0,0.5],[1,0.5]];portConstraint=eastwest;" vertex="1" parent="7-YqurPYllUJ31w4D0Pa-1">
          <mxGeometry y="104" width="170" height="26" as="geometry" />
        </mxCell>
        <mxCell id="7-YqurPYllUJ31w4D0Pa-6" value="email: string" style="text;strokeColor=#36393d;fillColor=#fff;align=left;verticalAlign=top;spacingLeft=4;spacingRight=4;overflow=hidden;rotatable=0;points=[[0,0.5],[1,0.5]];portConstraint=eastwest;" vertex="1" parent="7-YqurPYllUJ31w4D0Pa-1">
          <mxGeometry y="130" width="170" height="26" as="geometry" />
        </mxCell>
        <mxCell id="7-YqurPYllUJ31w4D0Pa-7" value="categorieCompte : CategorieCompte" style="text;strokeColor=#36393d;fillColor=#fff;align=left;verticalAlign=top;spacingLeft=4;spacingRight=4;overflow=hidden;rotatable=0;points=[[0,0.5],[1,0.5]];portConstraint=eastwest;" vertex="1" parent="7-YqurPYllUJ31w4D0Pa-1">
          <mxGeometry y="156" width="170" height="26" as="geometry" />
        </mxCell>
      </root>
    </mxGraphModel>
  </diagram>
</mxfile>
